<?xml version="1.0" encoding="UTF-8" standalone="no"?>
<!-- Created with Inkscape (http://www.inkscape.org/) -->

<svg
   xmlns:dc="http://purl.org/dc/elements/1.1/"
   xmlns:cc="http://creativecommons.org/ns#"
   xmlns:rdf="http://www.w3.org/1999/02/22-rdf-syntax-ns#"
   xmlns:svg="http://www.w3.org/2000/svg"
   xmlns="http://www.w3.org/2000/svg"
   version="1.1"
   width="765"
   height="990"
   id="svg2"
   xml:space="preserve"><metadata
     id="metadata8"><rdf:RDF><cc:Work
         rdf:about=""><dc:format>image/svg+xml</dc:format><dc:type
           rdf:resource="http://purl.org/dc/dcmitype/StillImage" /><dc:title></dc:title></cc:Work></rdf:RDF></metadata><defs
     id="defs6"><clipPath
       id="clipPath16"><path
         d="M 0,792 612,792 612,0 0,0 0,792 z"
         id="path18" /></clipPath></defs><g
     transform="matrix(1.25,0,0,-1.25,0,990)"
     id="g10"><g
       id="g12"><g
         clip-path="url(#clipPath16)"
         id="g14"><g
           transform="translate(469.708,613.4844)"
           id="g20"><path
             d="m 0,0 c 0.783,-3.2 2.916,-4.336 4.527,-6.513 0.46,-0.616 0.654,-1.595 1.139,-2.264 1.693,-2.349 3.806,-4.425 5.092,-6.515 0.264,-0.423 0.776,-0.688 0.852,-0.849 3,-6.477 -6.258,-5.469 -7.643,-9.629 -0.999,-2.985 1.529,-4.88 0.798,-7.838 -0.532,-1.326 -2.2,-1.854 -3.743,-2.196 -1.58,-0.344 -4.727,-0.166 -5.144,-0.323 0.775,-1.774 9.284,-0.529 8.649,-4.368 -1.839,-0.801 -2.414,-2.866 -2.828,-5.097 1.189,-2.018 2.028,-4.39 1.699,-7.929 -2.039,-7.593 -14.364,-4.897 -23.503,-5.377 -2.832,-1.084 -5.98,-2.334 -7.93,-4.818 -0.475,-0.603 -0.62,-2.017 -1.135,-2.832 -0.763,-1.214 -2.17,-2.327 -2.832,-3.399 -0.458,-0.745 -0.666,-1.638 -1.13,-2.547 -0.79,-1.543 -1.923,-3.11 -2.551,-4.531 -1.216,-2.762 -2.001,-6.334 -2.946,-9.204 11.026,-5.566 23.488,-8.708 36.685,-8.708 36.447,0 67.303,23.927 77.734,56.927 L 0.066,3.973 C -0.08,2.771 0.014,1.335 0,0"
             id="path22"
             style="fill:#646567;fill-opacity:1;fill-rule:nonzero;stroke:none" /></g><g
           transform="translate(467.7656,681.582)"
           id="g24"><path
             d="m 0,0 c -18.26,0 -35.113,-6.004 -48.7,-16.141 0.949,-0.155 1.748,-0.535 2.219,-1.266 1.028,0.294 1.285,1.357 2.266,1.699 0.524,-0.418 1.651,-0.234 1.698,-1.134 0.765,0.559 1.097,1.547 2.265,1.698 0.429,-1.084 -1.924,-1.781 -0.281,-2.263 0.896,-0.416 1.425,1.96 3.397,1.414 -0.027,-0.444 -0.724,-0.22 -0.57,-0.849 3.411,0.132 7.337,0.762 10.763,0.283 3.771,-0.522 7.76,-2.939 11.329,-4.528 1.121,-0.501 2.118,-0.166 2.831,-0.568 6.179,-3.478 16.125,-12.71 19.253,-18.406 0.992,-1.8 1.18,-4.877 1.704,-6.797 -0.938,-0.672 -0.456,-2.753 -0.57,-4.247 -1.828,-1.002 -0.74,-4.924 -2.832,-5.665 -0.059,0.502 0.287,1.418 -0.565,1.133 0.09,-0.941 -0.628,-1.068 -0.852,-1.698 -0.677,-0.112 0.159,1.29 -0.85,0.849 -1.19,-1.879 -0.273,-4.28 0,-5.948 -0.273,-0.455 -0.416,-1.038 -0.494,-1.691 l 75.721,-41.982 c 2.454,7.759 3.784,16.022 3.784,24.589 C 81.516,-36.499 45.021,0 0,0"
             id="path26"
             style="fill:#9f383a;fill-opacity:1;fill-rule:nonzero;stroke:none" /></g><g
           transform="translate(52.8262,446.6982)"
           id="g28"><path
             d="M 0,0 C 0,23.213 19.442,43.013 45.132,43.013 55.267,42.777 65.167,39.478 70.351,36.177 L 64.342,23.568 c 0,0 -8.603,4.716 -19.562,4.716 C 28.635,28.284 17.559,16.145 17.559,0 c 0,-16.144 11.076,-28.281 27.221,-28.281 10.959,0 19.562,4.714 19.562,4.714 l 6.009,-12.609 c -5.184,-3.3 -15.084,-6.601 -25.219,-6.838 C 19.442,-43.014 0,-23.214 0,0"
             id="path30"
             style="fill:#bec0c2;fill-opacity:1;fill-rule:nonzero;stroke:none" /></g><g
           transform="translate(151.8101,452.1191)"
           id="g32"><path
             d="m 0,0 20.974,0 c 4.714,0 8.958,5.539 8.958,10.487 0,8.603 -7.66,10.016 -14.142,10.016 L 0,20.503 0,0 z m 20.974,35.823 c 13.788,0 25.22,-11.429 25.22,-25.336 0,-10.135 -6.01,-19.561 -15.555,-23.449 l 18.735,-33.704 -19.089,0 -16.498,31.819 -13.787,0 0,-31.819 -16.496,0 0,82.489 37.47,0 z"
             id="path34"
             style="fill:#bec0c2;fill-opacity:1;fill-rule:nonzero;stroke:none" /></g><g
           transform="translate(271.5356,487.9419)"
           id="g36"><path
             d="m 0,0 0,-15.318 -41.833,0 0,-19.444 35.704,0 0,-14.847 -35.704,0 0,-17.56 42.656,0 0,-15.319 -59.155,0 0,82.488 L 0,0 z"
             id="path38"
             style="fill:#bec0c2;fill-opacity:1;fill-rule:nonzero;stroke:none" /></g><g
           transform="translate(302.9976,450.4692)"
           id="g40"><path
             d="m 0,0 19.795,0 c 4.832,0 8.838,6.009 8.838,11.196 0,8.6 -6.832,10.723 -13.787,10.723 L 0,21.919 0,0 z m 19.795,37.473 c 14.024,0 25.338,-12.609 25.338,-26.277 0,-13.671 -11.314,-26.515 -24.984,-26.515 l -20.149,0 0,-29.697 -16.497,0 0,82.489 36.292,0 z"
             id="path42"
             style="fill:#bec0c2;fill-opacity:1;fill-rule:nonzero;stroke:none" /></g><g
           transform="translate(418.2441,487.9419)"
           id="g44"><path
             d="m 0,0 0,-15.318 -41.836,0 0,-19.444 35.707,0 0,-14.847 -35.707,0 0,-17.56 42.658,0 0,-15.319 -59.152,0 L -58.33,0 0,0 z"
             id="path46"
             style="fill:#bec0c2;fill-opacity:1;fill-rule:nonzero;stroke:none" /></g><path
           d="m 449.705,405.454 -16.498,0 0,82.49 16.498,0 0,-82.49 z"
           id="path48"
           style="fill:#bec0c2;fill-opacity:1;fill-rule:nonzero;stroke:none" /><g
           transform="translate(486.8262,439.5098)"
           id="g50"><path
             d="M 0,0 21.68,0 10.719,33.822 0,0 z m 19.322,50.2 30.871,-84.256 -17.437,0 -7.07,20.858 -29.698,0 -7.07,-20.858 -17.439,0 30.873,84.256 16.97,0 z"
             id="path52"
             style="fill:#bec0c2;fill-opacity:1;fill-rule:nonzero;stroke:none" /></g></g></g><text
       transform="matrix(1,0,0,-0.98581541,54.1069,373.3926)"
       id="text54"><tspan
         x="0 13.084626 24.183998 39.028282 50.240452 62.377571 77.921204 82.703857 97.728622 108.828 113.61065 125.61241 136.71178 147.83371 163.37735 177.97348 183.36523 194.48717 208.29372 212.96356 217.74623 223.13799 237.98227 249.19444 260.29382 272.43094 285.01926 296.11862 310.96289 324.16034 337.51569 353.0593 357.84195 368.94135 373.724 385.74832 396.55441 410.36093 421.00912 426.40088 439.75623 452.95364 466.30899"
         y="0"
         id="tspan56"
         style="font-size:22.55970001px;font-variant:normal;font-weight:normal;font-stretch:normal;writing-mode:lr-tb;fill:#616264;fill-opacity:1;fill-rule:nonzero;stroke:none;font-family:Myriad Pro;-inkscape-font-specification:FlamaLight">CENTRO DE PESQUISA, INTERVENÇÃO E AVALIAÇÃO</tspan><tspan
         x="-0 11.099373 29.237371 34.020027 47.826565 58.474743 71.559372 87.103004 102.64664 113.29482 118.07747 129.17685 133.9595 149.50313 164.09926 175.31143 187.44855 201.25508 212.37701 217.15967 232.18443 244.32155 259.86517 274.43875 288.2453"
         y="23.958401"
         id="tspan58"
         style="font-size:22.55970001px;font-variant:normal;font-weight:normal;font-stretch:normal;writing-mode:lr-tb;fill:#616264;fill-opacity:1;fill-rule:nonzero;stroke:none;font-family:Myriad Pro;-inkscape-font-specification:FlamaLight">EM ÁLCOOL E OUTRAS DROGAS</tspan></text>
</g></svg>